#!OML:ASF E:\I on waltz\AllaLogoMonkeySwing\Project 1\Capture day 1\Session 1\Subject1.ASF
:FULLY-SPECIFIED
:DEGREES
433
root 0.81499 17.7186 5.80628 0.846777 -0.495921 0.994239
lowerback -1.49483 -0.465672 -3.74441
upperback -3.66434 -0.62013 0.664989
thorax -2.88762 -0.195544 2.78994
lowerneck -12.223 -1.4494 -2.13057
upperneck 15.6673 -1.95064 2.16131
head 6.83885 -0.880097 0.862943
rclavicle 3.3048e-015 3.77691e-015
rhumerus -25.6233 -9.64395 -84.6493
rradius 28.3801
rwrist 0.000226086
rhand -6.02212 -34.9526
rfingers 7.12502
rthumb 19.8111 -63.963
lclavicle 3.3048e-015 3.77691e-015
lhumerus -37.2444 12.6297 83.9771
lradius 39.6875
lwrist -3.73869
lhand -2.34312 -14.084
lfingers 7.12502
lthumb 23.3443 14.5204
rfemur 4.54267 1.46349 14.2117
rtibia 12.5281
rfoot -14.8776 -14.9866
rtoes 13.8795
lfemur 5.87778 -0.432937 -16.3985
ltibia 10.1807
lfoot -14.919 7.19982
ltoes -30.4584
434
root 0.825091 17.7194 5.80256 0.867775 -0.530008 1.02276
lowerback -1.421 -0.485399 -3.75009
upperback -3.63115 -0.648347 0.690433
thorax -2.89237 -0.209512 2.82018
lowerneck -12.2068 -1.41201 -1.98795
upperneck 15.6597 -1.90248 2.01948
head 6.82969 -0.860873 0.798405
rclavicle -1.46604e-015 -7.35503e-015
rhumerus -25.6896 -10.4469 -84.3114
rradius 27.7425
rwrist 0.537619
rhand -5.88348 -34.8222
rfingers 7.12502
rthumb 19.9444 -63.8187
lclavicle -1.46604e-015 -7.35503e-015
lhumerus -37.4072 13.7874 83.2049
lradius 38.3887
lwrist -4.72903
lhand -2.47196 -13.9662
lfingers 7.12502
lthumb 23.2207 14.6539
rfemur 4.54049 1.53306 14.1436
rtibia 12.4497
rfoot -14.8575 -14.9835
rtoes 14.0311
lfemur 5.84163 -0.374385 -16.4579
ltibia 10.1641
lfoot -14.9069 7.17779
ltoes -30.3726
435
root 0.839226 17.7218 5.79479 0.946438 -0.531382 0.947302
lowerback -1.32462 -0.528668 -3.59663
upperback -3.63446 -0.708151 0.735362
thorax -2.946 -0.241845 2.78199
lowerneck -12.2113 -1.36959 -1.89905
upperneck 15.7018 -1.8486 1.9407
head 6.84128 -0.836387 0.763476
rclavicle 1.51573e-015 -5.96354e-015
rhumerus -25.8403 -11.393 -83.8995
rradius 26.9492
rwrist 1.14515
rhand -5.64141 -34.7324
rfingers 7.12502
rthumb 20.177 -63.7046
lclavicle 1.51573e-015 -5.96354e-015
lhumerus -37.7225 15.0862 82.3164
lradius 37.1869
lwrist -5.59315
lhand -2.68226 -13.7147
lfingers 7.12502
lthumb 23.0189 14.9307
rfemur 4.42919 1.47518 14.1491
rtibia 12.4247
rfoot -14.848 -14.8868
rtoes 14.0705
lfemur 5.74135 -0.367662 -16.4255
ltibia 10.1335
lfoot -14.8728 7.17085
ltoes -30.3644
436
root 0.854535 17.7242 5.78371 1.04351 -0.530826 0.834439
lowerback -1.21106 -0.561047 -3.38618
upperback -3.63663 -0.753074 0.787193
thorax -3.00982 -0.268131 2.7191
lowerneck -12.2905 -1.36206 -1.77902
upperneck 15.8344 -1.8352 1.7852
head 6.89497 -0.835623 0.694385
rclavicle -9.86469e-015 -2.36554e-014
rhumerus -26.1032 -12.5321 -83.3854
rradius 26.1281
rwrist 1.84106
rhand -5.85183 -34.5199
rfingers 7.12502
rthumb 19.9748 -63.5132
lclavicle -9.86469e-015 -2.36554e-014
lhumerus -38.067 16.5485 81.3272
lradius 35.9799
lwrist -6.46531
lhand -2.79554 -13.2695
lfingers 7.12502
lthumb 22.9102 15.3895
rfemur 4.26586 1.32166 14.1753
rtibia 12.4439
rfoot -14.8081 -14.7396
rtoes 14.0024
lfemur 5.62027 -0.344896 -16.3558
ltibia 10.0993
lfoot -14.8164 7.14328
ltoes -30.2302
437
root 0.866213 17.7259 5.77291 1.11434 -0.578735 0.847098
lowerback -1.0917 -0.538484 -3.35837
upperback -3.62126 -0.726226 0.80906
thorax -3.06307 -0.254363 2.72699
lowerneck -12.3058 -1.41051 -1.79384
upperneck 15.9157 -1.89392 1.75295
head 6.92486 -0.867373 0.680662
rclavicle -9.16894e-015 -5.36719e-015
rhumerus -26.478 -13.8896 -82.7285
rradius 25.4004
rwrist 2.83445
rhand -5.69512 -34.9542
rfingers 7.12502
rthumb 20.1254 -63.9318
lclavicle -9.16894e-015 -5.36719e-015
lhumerus -38.3754 18.1255 80.2583
lradius 34.6442
lwrist -7.44781
lhand -2.91181 -12.9025
lfingers 7.12502
lthumb 22.7986 15.7702
rfemur 4.12517 1.27349 14.0937
rtibia 12.4769
rfoot -14.7534 -14.6715
rtoes 13.7646
lfemur 5.51878 -0.222596 -16.3911
ltibia 10.0783
lfoot -14.7886 7.07175
ltoes -30.0463
438
root 0.878864 17.7284 5.76368 1.20214 -0.610885 1.00628
lowerback -1.01506 -0.523492 -3.48076
upperback -3.60299 -0.710664 0.772744
thorax -3.08805 -0.243453 2.75878
lowerneck -12.2447 -1.44498 -1.82252
upperneck 15.941 -1.93972 1.76879
head 6.92365 -0.890065 0.686451
rclavicle -6.58474e-015 -1.21259e-014
rhumerus -26.9117 -15.3866 -81.9806
rradius 24.5552
rwrist 4.00599
rhand -5.31161 -35.5706
rfingers 7.12502
rthumb 20.494 -64.5089
lclavicle -6.58474e-015 -1.21259e-014
lhumerus -38.7755 19.714 79.0551
lradius 33.3541
lwrist -8.3827
lhand -3.11069 -12.592
lfingers 7.12502
lthumb 22.6077 16.1041
rfemur 3.93056 1.3532 13.8634
rtibia 12.5864
rfoot -14.7535 -14.7245
rtoes 13.6647
lfemur 5.39933 -0.180391 -16.6184
ltibia 10.0409
lfoot -14.7466 7.03872
ltoes -29.9746
439
root 0.893472 17.7308 5.75579 1.34517 -0.578618 1.11626
lowerback -1.02781 -0.543492 -3.52816
upperback -3.56764 -0.737644 0.738753
thorax -3.04222 -0.257543 2.75026
lowerneck -12.2432 -1.43921 -1.73231
upperneck 15.9999 -1.93223 1.66691
head 6.94036 -0.889847 0.639382
rclavicle 1.13804e-014 1.37161e-014
rhumerus -27.3664 -17.0487 -81.1105
rradius 23.4692
rwrist 5.11235
rhand -5.48096 -35.336
rfingers 7.12502
rthumb 20.3312 -64.2918
lclavicle 1.13804e-014 1.37161e-014
lhumerus -39.2973 21.2395 77.786
lradius 32.2535
lwrist -9.22249
lhand -3.35011 -12.2564
lfingers 7.12502
lthumb 22.3779 16.4675
rfemur 3.78892 1.51526 13.7175
rtibia 12.5104
rfoot -14.6929 -14.9005
rtoes 13.7506
lfemur 5.21675 -0.257697 -16.8193
ltibia 10.015
lfoot -14.6926 7.05764
ltoes -30.0601
440
root 0.907925 17.7333 5.74638 1.49408 -0.545038 1.07027
lowerback -1.0085 -0.544236 -3.41222
upperback -3.53768 -0.737075 0.773076
thorax -3.02252 -0.260796 2.72053
lowerneck -12.2728 -1.47787 -1.86837
upperneck 16.0523 -1.97279 1.74578
head 6.96541 -0.910379 0.683155
rclavicle 1.32689e-014 1.07344e-014
rhumerus -27.9565 -18.8436 -80.0371
rradius 22.4067
rwrist 6.11346
rhand -5.97398 -34.8477
rfingers 7.12502
rthumb 19.8574 -63.8532
lclavicle 1.32689e-014 1.07344e-014
lhumerus -39.9089 22.8583 76.4951
lradius 31.1963
lwrist -10.2289
lhand -3.66382 -12.1923
lfingers 7.12502
lthumb 22.0768 16.5675
rfemur 3.75335 1.6377 13.7514
rtibia 12.2125
rfoot -14.4924 -15.0412
rtoes 13.8218
lfemur 4.99855 -0.319461 -16.8329
ltibia 10.0539
lfoot -14.716 7.098
ltoes -30.1551
441
root 0.923522 17.7368 5.73422 1.59345 -0.536467 1.05571
lowerback -0.876647 -0.526666 -3.32536
upperback -3.51201 -0.716228 0.808254
thorax -3.072 -0.251681 2.70906
lowerneck -12.407 -1.61774 -2.1216
upperneck 16.1753 -2.13949 1.88823
head 7.03632 -0.99236 0.753833
rclavicle 1.63997e-015 -1.47101e-014
rhumerus -28.6868 -20.8231 -78.7658
rradius 21.4061
rwrist 7.32815
rhand -6.24207 -34.6079
rfingers 7.12502
rthumb 19.5996 -63.6399
lclavicle 1.63997e-015 -1.47101e-014
lhumerus -40.589 24.4764 75.1682
lradius 30.2045
lwrist -11.3005
lhand -4.00694 -11.8533
lfingers 7.12502
lthumb 21.7473 16.9451
rfemur 3.62362 1.54961 13.6688
rtibia 12.1532
rfoot -14.3576 -14.9616
rtoes 13.7709
lfemur 4.82768 -0.313015 -16.8831
ltibia 10.0879
lfoot -14.7784 7.0948
ltoes -30.0991
442
root 0.939992 17.7399 5.71904 1.67242 -0.509988 1.18635
lowerback -0.692327 -0.537603 -3.40011
upperback -3.47661 -0.738131 0.788822
thorax -3.13737 -0.260056 2.73326
lowerneck -12.7683 -1.83631 -2.18552
upperneck 16.49 -2.40799 1.79887
head 7.20739 -1.13057 0.705829
rclavicle 2.48481e-017 -3.77691e-015
rhumerus -29.432 -22.8238 -77.4215
rradius 20.3005
rwrist 8.82907
rhand -6.10858 -34.6917
rfingers 7.12502
rthumb 19.728 -63.7106
lclavicle 2.48481e-017 -3.77691e-015
lhumerus -41.3204 25.9087 73.809
lradius 29.3625
lwrist -12.2301
lhand -4.26516 -11.0965
lfingers 7.12502
lthumb 21.4993 17.7304
rfemur 3.44745 1.40955 13.3943
rtibia 12.21
rfoot -14.2914 -14.8573
rtoes 13.5715
lfemur 4.67072 -0.282345 -17.1046
ltibia 10.0983
lfoot -14.8131 7.01611
ltoes -30.0139
443
root 0.955501 17.7431 5.70296 1.78973 -0.474219 1.23746
lowerback -0.572801 -0.557216 -3.43199
upperback -3.43107 -0.768109 0.798752
thorax -3.15507 -0.274273 2.76309
lowerneck -12.561 -1.72011 -1.94223
upperneck 16.3836 -2.22826 1.40911
head 7.12523 -1.06569 0.558931
rclavicle -3.27995e-015 3.37934e-015
rhumerus -30.2412 -24.6945 -76.0179
rradius 19.1989
rwrist 10.3192
rhand -6.02919 -34.9717
rfingers 7.12502
rthumb 19.8043 -63.9827
lclavicle -3.27995e-015 3.37934e-015
lhumerus -42.0999 27.1695 72.4937
lradius 28.6794
lwrist -13.0932
lhand -4.37249 -10.7541
lfingers 7.12502
lthumb 21.3962 18.0846
rfemur 3.27153 1.39328 13.2664
rtibia 12.1887
rfoot -14.2038 -14.8889
rtoes 13.3128
lfemur 4.45812 -0.272475 -17.2155
ltibia 10.1197
lfoot -14.8366 6.92404
ltoes -29.8903
